<?xml version="1.0" encoding="UTF-8"?>
<svg id="Ebene_6" data-name="Ebene 6" xmlns="http://www.w3.org/2000/svg" viewBox="0 0 616.91 742.13">
  <polygon points="149.32 263.36 149.32 247.54 122.78 247.54 122.78 263.36 138.31 263.36 138.31 305.35 163.82 305.35 163.82 263.36 149.32 263.36" fill="#1d1d1b"/>
  <path d="M370.48,428.45v-12.33h-48.6v12.33h-12.33v44.25h12.33v15.23h48.6v-15.23h14.51v-44.25h-14.51ZM355.21,466.98h-19.02v-24.3h19.02v24.3Z" fill="#575756" stroke="#1d1d1b" stroke-miterlimit="10" stroke-width="11"/>
  <path d="M127.74,441.68h-44.25v29.02h12.33v19.59h31.92v-19.59h12.33v-29.02h-12.33ZM118.46,470.64h-13.36v-24.3h13.36v24.3Z" fill="#575756" stroke="#1d1d1b" stroke-miterlimit="10" stroke-width="11"/>
  <polygon points="493.73 334.54 493.73 333.72 481.2 333.72 481.2 329.16 493.73 329.16 493.73 304.27 482.52 304.27 482.52 290.03 468.12 290.03 468.12 276.58 455.68 276.58 455.68 264.13 440.7 264.13 440.7 250.96 428.84 250.96 428.84 237.78 369.66 237.78 369.66 249.19 357.93 249.19 357.93 273.94 335.86 273.94 335.86 273.25 343.75 273.25 343.75 237.78 335.86 237.78 335.86 216.86 236.87 216.86 236.87 237.78 229.29 237.78 229.29 273.25 236.87 273.25 236.87 273.94 213.23 273.94 213.23 302.48 197.18 302.48 197.18 331.02 172.41 331.02 172.41 308.49 133.35 308.49 133.35 331.02 116.91 331.02 116.91 366.23 103.23 366.23 103.23 396.12 77.67 396.12 77.67 408.61 61.91 408.61 61.91 438.14 156.91 438.14 156.91 430.01 236.87 430.01 278.28 430.01 278.28 450.58 316.91 450.58 316.91 430.01 330.06 430.01 335.86 430.01 335.86 411.06 375.47 411.06 375.47 423.76 400.36 423.76 400.36 398.88 384.77 398.88 384.77 381.18 343.75 381.18 343.75 371.07 360.87 371.07 360.87 359.11 373.32 359.11 373.32 347.96 388.01 347.96 388.01 329.03 373.32 329.03 373.32 316.72 388.01 316.72 388.01 277.54 404.15 277.54 404.15 264.13 415.82 264.13 415.82 275.84 430.79 275.84 430.79 289.02 440.7 289.02 440.7 301.46 454.41 301.46 454.41 314.92 455.1 314.92 455.1 329.16 469.85 329.16 469.85 333.72 459.04 333.72 459.04 334.54 444.45 334.54 444.45 344.51 428.68 344.51 428.68 356.96 415.4 356.96 415.4 391.42 428.68 391.42 428.68 392.65 428.68 407.59 476.82 407.59 476.82 395.13 481.2 395.13 481.2 392.65 495.09 392.65 495.09 379.37 509.2 379.37 509.2 334.54 493.73 334.54" fill="#ffed00" stroke="#1d1d1b" stroke-miterlimit="10" stroke-width="11"/>
  <polygon points="147.63 418.29 147.63 408.3 135.47 408.3 135.47 400.49 110.3 400.49 110.3 408.3 95.11 408.3 95.11 418.29 128.96 418.29 128.96 431.74 150.45 431.74 150.45 418.29 147.63 418.29" fill="#f39200"/>
  <g>
    <rect x="159.61" y="371.78" width="20.4" height="36.03" fill="#f39200"/>
    <rect x="188.69" y="371.78" width="20.4" height="36.03" fill="#f39200"/>
    <rect x="138.78" y="339.23" width="41.23" height="14.32" fill="#f39200"/>
  </g>
  <polygon points="486.68 321.74 467.9 321.74 467.9 337.5 455.33 337.5 455.33 347.37 445.89 347.37 445.89 362.89 429.67 362.89 429.67 380.9 447.68 380.9 447.68 362.89 461.4 362.89 461.4 355.13 472.96 355.13 472.96 340.52 486.68 340.52 486.68 321.74" fill="#f39200"/>
  <polygon points="340.86 397.86 340.86 338.73 353.81 338.73 353.81 319.57 340.86 319.57 340.86 303.42 357.04 303.42 357.04 288.36 340.86 288.36 340.86 279.6 326.73 279.6 326.73 382.53 303.19 382.53 303.19 395.12 286.72 395.12 286.72 411.27 164.31 411.27 164.31 423.04 292.6 423.04 292.6 411.27 304.08 411.27 304.08 397.86 326.73 397.86 326.73 405.52 371.23 405.52 371.23 397.86 340.86 397.86" fill="#f39200"/>
  <polygon points="319.08 272.7 303.67 272.7 303.67 261.07 281.9 261.07 281.9 272.7 261.01 272.7 261.01 287.75 251.67 287.75 251.67 313.75 240.12 313.75 240.12 340.43 229.85 340.43 229.85 397.22 240.12 397.22 240.12 405.43 281.9 405.43 281.9 391.75 292.78 391.75 292.78 378.06 303.67 378.06 303.67 368.83 319.08 368.83 319.08 272.7" fill="#36a9e1" stroke="#1d1d1b" stroke-miterlimit="10" stroke-width="11"/>
</svg>