<?xml version="1.0" encoding="UTF-8"?>
<svg id="Ebene_11" data-name="Ebene 11" xmlns="http://www.w3.org/2000/svg" viewBox="0 0 530.34 742.13">
  <g>
    <rect x="193.12" y="430.45" width="159.12" height="25.93" fill="#504f4e" stroke="#1d1d1b" stroke-miterlimit="10" stroke-width="6"/>
    <path d="M385.37,326.79v-5.21h-8.64v-1.6h-37.76v2.38h-11.71v40.17h-16.57v-7.48h-11.64v-8.11h-5.78v-24.59h-66.29v-12.42h-22.52v120.52h136.83v-9.06h35.45v-5.26h4.11v-6.36h6.58v-2h5.76v-80.97h-7.81ZM373.03,397.74h-6.99v6.81h-24.75v-70.95h24.75v5.41h6.99v58.72Z" fill="#e5d20a" stroke="#1d1d1b" stroke-miterlimit="10" stroke-width="6"/>
    <polygon points="352.76 278.54 343.37 278.54 343.37 270.17 338.82 270.17 338.82 264.42 324.61 264.42 324.61 255.02 290.02 255.02 290.02 248.22 283.04 248.22 283.04 239.86 248.46 239.86 248.46 248.22 238.8 248.22 238.8 255.02 223.25 255.02 223.25 264.42 213.06 264.42 213.06 271.74 196.71 271.74 196.71 279.32 185.98 279.32 185.98 293.94 178.41 293.94 178.41 346.85 185.98 346.85 185.98 355.89 204.45 355.89 204.45 309.93 213.06 309.93 226.74 309.93 226.74 322.35 292.97 322.35 292.97 346.85 299.04 346.85 299.04 355.05 310.13 355.05 310.13 361.38 327.26 361.38 327.26 322.35 338.82 322.35 338.82 309.93 338.82 305.45 338.82 298.14 352.76 298.14 352.76 278.54" fill="#fff9c5" stroke="#1d1d1b" stroke-miterlimit="10" stroke-width="6"/>
    <polygon points="313.89 342.65 313.89 328.58 304.63 328.58 304.63 310 298.82 310 298.82 302.99 257.19 302.99 257.19 297.67 233.79 297.67 233.79 284.54 214.47 284.54 214.47 275.9 201.17 275.9 201.17 284.54 191.35 284.54 191.35 299.05 183.8 299.05 183.8 341.6 189.83 341.6 189.83 351.23 198.89 351.23 198.89 341.6 198.89 330.84 198.89 304.93 227.05 304.93 231.15 304.93 231.15 317.02 297.01 317.02 297.01 341.6 304.63 341.6 304.63 349.81 313.89 349.81 313.89 356.45 322.33 356.45 322.33 342.65 313.89 342.65" fill="#e3d991"/>
    <polygon points="286.86 412.94 286.86 402.24 267.89 402.24 267.89 397.62 265.59 397.62 265.59 384 253.07 384 253.07 397.62 241.19 397.62 241.19 384 253.07 384 253.07 372.81 239.94 372.81 239.94 384 228.71 384 228.71 377.43 235.2 377.43 235.2 364.78 228.71 364.78 228.71 345.08 222.72 345.08 222.72 314.49 208.32 314.49 208.32 425.63 221.23 425.63 222.72 425.63 282.62 425.63 286.86 425.63 318.56 425.63 318.56 412.94 286.86 412.94" fill="#e3d991"/>
    <rect x="243.52" y="347.44" width="12.34" height="12.02" fill="#e3d991"/>
    <rect x="255.86" y="337.75" width="6.91" height="6.73" fill="#e3d991"/>
    <rect x="268.93" y="363.6" width="12.52" height="12.2" fill="#e3d991"/>
    <rect x="289.92" y="381.18" width="11.78" height="11.49" fill="#e3d991"/>
    <rect x="295.82" y="369.08" width="6.9" height="6.72" fill="#e3d991"/>
    <rect x="295.82" y="399.85" width="5.89" height="5.74" fill="#e3d991"/>
    <rect x="275.19" y="386.93" width="7.18" height="7" fill="#e3d991"/>
    <rect x="316.07" y="390.43" width="12.61" height="12.29" fill="#e3d991"/>
    <rect x="309.44" y="399.85" width="9.11" height="13.09" fill="#e3d991"/>
  </g>
  <rect x="214.79" y="333.6" width="5.92" height="38.84" fill="#fff"/>
  <rect x="211.4" y="361.38" width="14.8" height="14.42" fill="#fff"/>
  <rect x="214.79" y="372.44" width="5.92" height="27.41" fill="#fff"/>
  <rect x="218.8" y="392.67" width="14.08" height="13.73" fill="#fff"/>
  <rect x="240.17" y="402.72" width="28.76" height="14.3" fill="#fff"/>
  <rect x="259.31" y="393.93" width="3.45" height="19.02" fill="#fff"/>
  <rect x="268.93" y="409.87" width="13.44" height="10.86" fill="#fff"/>
  <rect x="236.79" y="409.87" width="12.91" height="7.15" fill="#fff"/>
  <rect x="254.55" y="409.87" width="10.24" height="9.98" fill="#fff"/>
  <rect x="272.68" y="368.59" width="3.95" height="3.85" fill="#fff"/>
  <rect x="246.94" y="351.05" width="5.54" height="5.4" fill="#fff"/>
  <rect x="243.52" y="375.8" width="5.52" height="5.38" fill="#fff"/>
  <rect x="293.05" y="386.14" width="4.39" height="4.28" fill="#fff"/>
  <rect x="265.59" y="244.2" width="13.19" height="23.91" fill="#fff"/>
  <rect x="275.94" y="253.07" width="9.67" height="10.91" fill="#fff"/>
  <rect x="276.89" y="260.09" width="43.05" height="15.81" fill="#fff"/>
  <rect x="259.31" y="244.2" width="19.47" height="10.35" fill="#fff"/>
  <rect x="291.49" y="273.4" width="18.97" height="10.91" fill="#fff"/>
  <rect x="312.92" y="268.11" width="21.05" height="10.74" fill="#fff"/>
  <rect x="212.63" y="411.52" width="27.54" height="8.33" fill="#fff"/>
  <rect x="232.04" y="399.85" width="11.2" height="10.02" fill="#fff"/>
  <rect x="224.28" y="404.55" width="13.36" height="10.31" fill="#fff"/>
  <rect x="217.75" y="386.14" width="8.65" height="8.43" fill="#fff"/>
  <rect x="218.8" y="378.49" width="5.48" height="8.43" fill="#fff"/>
  <rect x="211.4" y="382.71" width="9.31" height="12.73" fill="#fff"/>
  <rect x="212.63" y="348.12" width="11.64" height="13.26" fill="#fff"/>
</svg>