<?xml version="1.0" encoding="UTF-8"?>
<svg id="Ebene_8" data-name="Ebene 8" xmlns="http://www.w3.org/2000/svg" viewBox="0 0 616.91 742.13">
  <g>
    <rect x="160.19" y="149.71" width="12.87" height="12.87" fill="#fff" stroke="#1d1d1b" stroke-miterlimit="10" stroke-width="11"/>
    <rect x="166.63" y="135.96" width="5.55" height="5.55" fill="#fff" stroke="#1d1d1b" stroke-miterlimit="10" stroke-width="11"/>
    <rect x="181.74" y="141.29" width="4.3" height="4.3" fill="#fff" stroke="#1d1d1b" stroke-miterlimit="10" stroke-width="11"/>
    <rect x="199.69" y="138.73" width="24.38" height="2.77" fill="#fff" stroke="#1d1d1b" stroke-miterlimit="10" stroke-width="11"/>
    <rect x="252.44" y="128.75" width="27.33" height="9.98" fill="#fff" stroke="#1d1d1b" stroke-miterlimit="10" stroke-width="11"/>
    <rect x="286.21" y="133.74" width="25.93" height="6.38" fill="#fff" stroke="#1d1d1b" stroke-miterlimit="10" stroke-width="11"/>
    <rect x="340.86" y="143.44" width="3.82" height="11.06" fill="#fff" stroke="#1d1d1b" stroke-miterlimit="10" stroke-width="11"/>
    <rect x="340.86" y="176.14" width="4.97" height="18.27" fill="#fff" stroke="#1d1d1b" stroke-miterlimit="10" stroke-width="11"/>
    <rect x="163.03" y="179.85" width="3.6" height="20.34" fill="#fff" stroke="#1d1d1b" stroke-miterlimit="10" stroke-width="11"/>
    <rect x="154.8" y="231.62" width="1.97" height="21.51" fill="#fff" stroke="#1d1d1b" stroke-miterlimit="10" stroke-width="11"/>
    <rect x="174.25" y="299.58" width="3.43" height="3.43" fill="#fff" stroke="#1d1d1b" stroke-miterlimit="10" stroke-width="11"/>
    <rect x="175.97" y="311.53" width="1.72" height="15.72" fill="#fff" stroke="#1d1d1b" stroke-miterlimit="10" stroke-width="11"/>
    <rect x="146.93" y="327.25" width="19.69" height="5.24" fill="#fff" stroke="#1d1d1b" stroke-miterlimit="10" stroke-width="11"/>
    <rect x="127.28" y="342.27" width="4.61" height="4.61" fill="#fff" stroke="#1d1d1b" stroke-miterlimit="10" stroke-width="11"/>
    <rect x="113.32" y="357.39" width="16.27" height=".66" fill="#fff" stroke="#1d1d1b" stroke-miterlimit="10" stroke-width="11"/>
    <rect x="103.04" y="371.07" width="3.28" height="21.76" fill="#fff" stroke="#1d1d1b" stroke-miterlimit="10" stroke-width="11"/>
    <rect x="116.14" y="408.02" width="18.34" height="4.8" fill="#fff" stroke="#1d1d1b" stroke-miterlimit="10" stroke-width="11"/>
    <rect x="144.31" y="408.02" width="12.47" height="4.8" fill="#fff" stroke="#1d1d1b" stroke-miterlimit="10" stroke-width="11"/>
    <rect x="163.36" y="364.09" width="3.26" height="14.67" fill="#fff" stroke="#1d1d1b" stroke-miterlimit="10" stroke-width="11"/>
    <rect x="175.97" y="384.05" width="5.77" height="23.97" fill="#fff" stroke="#1d1d1b" stroke-miterlimit="10" stroke-width="11"/>
    <rect x="179.88" y="428.8" width="11.13" height="19" fill="#fff" stroke="#1d1d1b" stroke-miterlimit="10" stroke-width="11"/>
    <rect x="172.18" y="462.41" width=".88" height="14.86" fill="#fff" stroke="#1d1d1b" stroke-miterlimit="10" stroke-width="11"/>
    <rect x="164.14" y="517.54" width="35.19" height="2.48" fill="#fff" stroke="#1d1d1b" stroke-miterlimit="10" stroke-width="11"/>
    <rect x="207.19" y="515.14" width="4.88" height="4.88" fill="#fff" stroke="#1d1d1b" stroke-miterlimit="10" stroke-width="11"/>
    <rect x="221.54" y="491.05" width=".54" height="7.67" fill="#fff" stroke="#1d1d1b" stroke-miterlimit="10" stroke-width="11"/>
    <rect x="230.74" y="488.97" width="18.41" height="4.52" fill="#fff" stroke="#1d1d1b" stroke-miterlimit="10" stroke-width="11"/>
    <rect x="272.98" y="496.74" width=".54" height="7.58" fill="#fff" stroke="#1d1d1b" stroke-miterlimit="10" stroke-width="11"/>
    <rect x="280.76" y="517.54" width="11.97" height="2.48" fill="#fff" stroke="#1d1d1b" stroke-miterlimit="10" stroke-width="11"/>
    <rect x="301.94" y="517.58" width="17.6" height="1.2" fill="#fff" stroke="#1d1d1b" stroke-miterlimit="10" stroke-width="11"/>
    <rect x="328.2" y="494.89" width="1.41" height="12.41" fill="#fff" stroke="#1d1d1b" stroke-miterlimit="10" stroke-width="11"/>
    <rect x="335.79" y="488.97" width="26.53" height="2.26" fill="#fff" stroke="#1d1d1b" stroke-miterlimit="10" stroke-width="11"/>
    <rect x="369.08" y="458.52" width="1.9" height="12.48" fill="#fff" stroke="#1d1d1b" stroke-miterlimit="10" stroke-width="11"/>
    <rect x="368" y="425.25" width="2.03" height="15.13" fill="#fff" stroke="#1d1d1b" stroke-miterlimit="10" stroke-width="11"/>
    <rect x="349.05" y="421.2" width="17" height="1.65" fill="#fff" stroke="#1d1d1b" stroke-miterlimit="10" stroke-width="11"/>
    <rect x="339.85" y="392.82" width="2.17" height="13.76" fill="#fff" stroke="#1d1d1b" stroke-miterlimit="10" stroke-width="11"/>
    <rect x="345.84" y="396.04" width="28.87" height="3.67" fill="#fff" stroke="#1d1d1b" stroke-miterlimit="10" stroke-width="11"/>
    <rect x="387.22" y="396.04" width="17.51" height="1.83" fill="#fff" stroke="#1d1d1b" stroke-miterlimit="10" stroke-width="11"/>
    <rect x="409.15" y="367.33" width="1.35" height="25.49" fill="#fff" stroke="#1d1d1b" stroke-miterlimit="10" stroke-width="11"/>
    <rect x="407.8" y="337.82" width="1.35" height="14.35" fill="#fff" stroke="#1d1d1b" stroke-miterlimit="10" stroke-width="11"/>
    <rect x="382.08" y="332.68" width="22.66" height="3.79" fill="#fff" stroke="#1d1d1b" stroke-miterlimit="10" stroke-width="11"/>
    <rect x="336.6" y="328.61" width="23.67" height="2.71" fill="#fff" stroke="#1d1d1b" stroke-miterlimit="10" stroke-width="11"/>
    <rect x="339.85" y="306.44" width="0" height="15.4" fill="#fff" stroke="#1d1d1b" stroke-miterlimit="10" stroke-width="11"/>
    <rect x="336.6" y="286.82" width="1.62" height="9.31" fill="#fff" stroke="#1d1d1b" stroke-miterlimit="10" stroke-width="11"/>
  </g>
  <g>
    <rect x="181.74" y="418.33" width="95.03" height="44.08" fill="#1d1d1b"/>
    <rect x="245.71" y="140.56" width="95.15" height="141.22" fill="#1d1d1b" stroke="#1d1d1b" stroke-miterlimit="10" stroke-width="11"/>
    <rect x="168.36" y="145.59" width="95.15" height="141.22" fill="#1d1d1b" stroke="#1d1d1b" stroke-miterlimit="10" stroke-width="11"/>
    <rect x="263.51" y="418.33" width="67.11" height="80.39" fill="#1d1d1b"/>
    <polygon points="344.68 221.04 337.93 221.04 337.93 202.89 324.43 202.89 324.43 189.28 324.43 170.63 303.06 170.63 303.06 154.5 244.56 154.5 244.56 170.63 201.41 170.63 201.41 189.28 180.44 189.28 180.44 221.04 160.19 221.04 160.19 271.45 180.44 271.45 180.44 288.58 207.44 288.58 207.44 308.75 244.56 308.75 258.06 308.75 303.06 308.75 303.06 288.58 324.43 288.58 324.43 271.45 344.68 271.45 344.68 221.04" fill="#99c1e8" stroke="#1d1d1b" stroke-miterlimit="10" stroke-width="11"/>
    <polygon points="335.05 337.96 335.05 315.35 335.05 288.61 313.51 288.61 313.51 315.35 199.48 315.35 199.48 288.61 181.74 288.61 181.74 315.35 181.74 337.96 136.12 337.96 136.12 364.09 113.32 364.09 113.32 384.57 163.36 384.57 163.36 364.09 181.74 364.09 181.74 412.82 199.48 412.82 313.51 412.82 335.05 412.82 335.05 364.09 404.74 364.09 404.74 337.96 335.05 337.96" fill="#fff" stroke="#1d1d1b" stroke-miterlimit="10" stroke-width="11"/>
    <rect x="344.68" y="364.7" width="60.06" height="28.12" fill="#99c1e8" stroke="#1d1d1b" stroke-miterlimit="10" stroke-width="11"/>
    <rect x="113.05" y="384.05" width="49.98" height="23.97" fill="#99c1e8" stroke="#1d1d1b" stroke-miterlimit="10" stroke-width="11"/>
    <rect x="273.76" y="211.17" width="6.01" height="24.54" fill="#1d1d1b" stroke="#1d1d1b" stroke-miterlimit="10" stroke-width="11"/>
    <rect x="229.69" y="211.17" width="8.01" height="24.54" fill="#1d1d1b" stroke="#1d1d1b" stroke-miterlimit="10" stroke-width="11"/>
    <polygon points="208.87 258.36 201.57 258.36 201.57 244.45 190.28 244.45 190.28 258.36 194.26 258.36 194.26 283.67 204.45 283.67 204.45 306.44 216.85 306.44 216.85 271.02 208.87 271.02 208.87 258.36" fill="#36a9e1"/>
    <polygon points="321.01 244.29 321.01 260.79 300.04 260.79 300.04 276.45 286.21 276.45 286.21 305.19 303.21 305.19 303.21 282.95 321.01 282.95 321.01 266.87 331.04 266.87 331.04 244.29 321.01 244.29" fill="#36a9e1"/>
    <polygon points="318.78 292.72 318.78 325.71 206.31 325.71 206.31 292.72 187.97 292.72 187.97 358.7 187.97 391.82 329.1 391.82 329.1 358.7 329.61 358.7 329.61 292.72 318.78 292.72" fill="#fff"/>
    <rect x="237.7" y="260.6" width="39.06" height="21.18" fill="#be1622"/>
    <polygon points="325.42 425.25 325.42 450.31 280.76 450.31 280.76 515.14 325.42 515.14 325.42 484.02 366.05 484.02 366.05 425.25 325.42 425.25" fill="#e30613" stroke="#1d1d1b" stroke-miterlimit="10" stroke-width="11"/>
    <polygon points="176.77 462.41 176.77 487.48 160.19 487.48 160.19 515.14 217.54 515.14 217.54 487.48 258.32 487.48 258.32 462.41 176.77 462.41" fill="#e30613" stroke="#1d1d1b" stroke-miterlimit="10" stroke-width="11"/>
    <rect x="330.64" y="425.25" width="30.38" height="18.15" fill="#e94e1b"/>
    <rect x="286.21" y="455.82" width="25.93" height="30.37" fill="#e94e1b"/>
    <polygon points="180.37 467.92 180.37 487.93 163.79 487.93 163.79 510.01 180.37 510.01 180.37 494.14 199.69 494.14 199.69 467.92 180.37 467.92" fill="#e94e1b"/>
    <rect x="210.52" y="299.58" width="89.22" height="6.86" fill="#36a9e1"/>
    <rect x="186.04" y="194.41" width="26.21" height="11.57" fill="#36a9e1"/>
    <rect x="209.25" y="176.14" width="45.88" height="12.1" fill="#36a9e1"/>
    <rect x="206.2" y="176.14" width="9.73" height="20.97" fill="#36a9e1"/>
    <rect x="249.74" y="159.21" width="11.28" height="16.93" fill="#36a9e1"/>
    <rect x="291.27" y="159.21" width="6.45" height="27.42" fill="#36a9e1"/>
    <rect x="291.27" y="176.14" width="27.82" height="14.51" fill="#36a9e1"/>
    <rect x="312.24" y="188.24" width="6.85" height="27.96" fill="#36a9e1"/>
    <rect x="163.79" y="226.44" width="9.68" height="40.25" fill="#36a9e1"/>
    <rect x="163.79" y="257.29" width="32.18" height="9.39" fill="#36a9e1"/>
    <rect x="186.04" y="257.29" width="9.93" height="26.37" fill="#36a9e1"/>
    <rect x="163.79" y="226.44" width="27.79" height="5.19" fill="#36a9e1"/>
    <rect x="186.04" y="195.09" width="5.54" height="32.01" fill="#36a9e1"/>
    <rect x="315.67" y="208.33" width="19.46" height="7.88" fill="#36a9e1"/>
    <rect x="323.41" y="208.33" width="9.09" height="18.11" fill="#36a9e1"/>
    <rect x="329.61" y="223.44" width="11.25" height="43.25" fill="#36a9e1"/>
    <rect x="249.74" y="159.21" width="47.98" height="6.75" fill="#36a9e1"/>
    <rect x="215.93" y="260.6" width="16.26" height="28.01" fill="#ee80ad"/>
    <rect x="286.21" y="253.13" width="18.97" height="26.64" fill="#ee80ad"/>
    <rect x="206.2" y="266.69" width="10.65" height="10.65" fill="#ee80ad"/>
    <rect x="297.72" y="248.5" width="12.1" height="12.1" fill="#ee80ad"/>
  </g>
</svg>