<?xml version="1.0" encoding="UTF-8"?>
<svg id="Ebene_10" data-name="Ebene 10" xmlns="http://www.w3.org/2000/svg" viewBox="0 0 540.23 742.13">
  <polygon points="390.71 391.74 385.5 391.74 385.5 385.56 378.67 385.56 378.67 343.57 368.09 343.57 368.09 333.48 364.02 333.48 364.02 327.62 356.77 327.62 356.77 322.78 351.12 322.78 351.12 316.87 345.46 316.87 345.46 311.99 339.01 311.99 339.01 294.92 274.54 294.92 274.54 300.73 260.6 300.73 260.6 306.87 255.35 306.87 255.35 311.99 249.96 311.99 249.96 322.78 244.29 322.78 244.29 340.84 232.7 340.84 232.7 358.91 225.69 358.91 225.69 390.6 214.14 390.6 214.14 395.08 207.97 395.08 207.97 400.81 202.59 400.81 202.59 419.62 207.97 419.62 207.97 425.36 214.14 425.36 214.14 431.99 225.69 431.99 225.69 437.92 232.7 437.92 240.25 437.92 244.29 437.92 255.35 437.92 274.54 437.92 274.54 436.64 313.45 436.64 313.45 427.15 339.01 427.15 339.01 425.36 345.46 425.36 356.77 425.36 356.77 419.62 368.09 419.62 368.09 411.29 378.67 411.29 378.67 407.69 385.5 407.69 385.5 400.81 390.71 400.81 390.71 391.74" fill="#f39200" stroke="#1d1d1b" stroke-miterlimit="10" stroke-width="11"/>
  <path d="M333.44,295.59h-56.62v4.94h-9.74v5.62h-8.22v7.12h-6.09v6.29h-7.04v18.26h-10.88v19.89h-7.25v33.66h-13.99v9.21h-7.13v17.49h7.13v9.5h13.99v7.68h75.04v-15.62h20.07v-19.06h-20.07v-55.68h5.43v-10.68h5.43v-11.45h4.71v-6.51h5.53v-2.36h3.04v-8.43h6.66v-9.89ZM318.21,309.69h-4.71v4.21h-4.3v5.65h-6.56v11.04h-4.9v11.86h-10.73v-16.6h6.91v-9.59h8.71v-4.49h4.31v-6.29h11.26v4.21Z" fill="#e94e1b"/>
  <rect x="333.95" y="403.08" width="11.46" height="10.03" fill="#e94e1b"/>
  <polygon points="383.17 392.78 383.17 387.12 361.42 387.12 361.42 392.78 354.5 392.78 354.5 397.98 350.12 397.98 350.12 406.15 362.43 406.15 362.43 400.62 368.33 400.62 368.33 395.3 379.97 395.3 379.97 403.08 392.85 403.08 392.85 392.78 383.17 392.78" fill="#e94e1b"/>
  <polygon points="324.29 407.04 296.02 407.04 296.02 413.26 245.99 413.26 245.99 407.04 240.07 407.04 240.07 400.53 233.53 400.53 233.53 390.02 230.63 390.02 230.63 382.11 217.7 382.11 217.7 396.5 223.11 396.5 223.11 405.41 230.63 405.41 230.63 411.78 237.41 411.78 237.41 417.11 243.18 417.11 243.18 421.69 297.03 421.69 297.03 416.07 327.11 416.07 327.11 409.56 344.87 409.56 344.87 402.75 324.29 402.75 324.29 407.04" fill="#1d1d1b"/>
  <polygon points="373.75 379.92 373.75 384.94 363.53 384.94 363.53 391.64 357.83 391.64 357.83 396.83 347.39 396.83 347.39 405.41 359.82 405.41 359.82 400.69 369.23 400.69 369.23 395.16 373.75 395.16 373.75 389.3 385.98 389.3 385.98 379.92 373.75 379.92" fill="#1d1d1b"/>
  <polygon points="373.03 357.58 364.65 357.58 364.65 362.94 352.93 362.94 352.93 368.97 343 368.97 343 372.99 323.98 372.99 323.98 379.75 287.92 379.75 287.92 400.81 327.8 400.81 327.8 396.11 347.1 396.11 347.1 388.08 358.04 388.08 358.04 384.55 368 384.55 368 379.75 373.03 379.75 373.03 357.58" fill="#706f6f"/>
  <polygon points="296.65 370.79 286.51 370.79 286.51 366.11 281.56 366.11 281.56 359.87 252.17 359.87 252.17 366.11 246.7 366.11 246.7 370.79 238.38 370.79 238.38 393.16 246.7 393.16 246.7 397.07 252.17 397.07 252.17 404.35 281.56 404.35 281.56 397.07 286.51 397.07 286.51 393.16 296.65 393.16 296.65 370.79" fill="#706f6f" stroke="#1d1d1b" stroke-miterlimit="10" stroke-width="7"/>
  <polygon points="284.74 376.82 275.66 376.82 275.66 370.61 257.49 370.61 257.49 376.82 248.29 376.82 248.29 387.63 257.49 387.63 257.49 393.61 275.66 393.61 275.66 387.63 284.74 387.63 284.74 376.82" fill="#ffed00" stroke="#1d1d1b" stroke-miterlimit="10" stroke-width="4"/>
</svg>