<?xml version="1.0" encoding="UTF-8"?>
<svg id="Ebene_9" data-name="Ebene 9" xmlns="http://www.w3.org/2000/svg" viewBox="0 0 616.91 742.13">
  <polygon points="316.73 398.82 308.56 398.82 308.56 389.23 296.62 389.23 296.62 382.48 288.67 382.48 288.67 374.66 279.43 374.66 279.43 365.07 252.78 365.07 252.78 345.89 243.19 345.89 243.19 337 233.6 337 233.6 328.12 225.07 328.12 225.07 319.95 216.54 319.95 216.54 312.13 197.36 312.13 197.36 319.95 187.41 319.95 187.41 328.12 180.66 328.12 180.66 337 170.35 337 170.35 345.89 158.63 345.89 158.63 365.07 149.75 365.07 149.75 391.76 140.56 391.76 140.56 440.75 136.96 440.75 136.96 446.79 149.75 446.79 149.75 470.95 167.16 470.95 167.16 476.28 225.07 476.28 225.07 467.04 260.6 467.04 260.6 455.85 279.43 455.85 279.43 448.21 288.03 448.21 288.03 443.11 296.62 443.11 296.62 429.74 308.56 429.74 308.56 417.44 316.73 417.44 316.73 398.82" fill="#706f6f" stroke="#1d1d1b" stroke-miterlimit="10" stroke-width="6"/>
  <polygon points="275.06 361.88 270.17 361.88 270.17 352.43 262.33 352.43 262.33 345.45 246.21 345.45 246.21 352.43 238.37 352.43 238.37 361.88 232.53 361.88 232.53 367.17 221.34 367.17 221.34 377.61 215.37 377.61 215.37 384.33 206.41 384.33 206.41 401.49 248.2 401.49 248.2 397.01 255.66 397.01 255.66 387.31 265.36 387.31 265.36 377.24 275.06 377.24 275.06 361.88" fill="#b17f4a" stroke="#1d1d1b" stroke-miterlimit="10" stroke-width="6"/>
  <polygon points="304.16 318.88 304.16 311.47 298.93 311.47 298.93 300.58 290.65 300.58 290.65 311.47 281.07 311.47 281.07 318.88 269.61 318.88 269.61 330.64 261.9 330.64 261.9 338.48 254.49 338.48 254.49 345.45 261.9 345.45 261.9 352.43 269.61 352.43 269.61 361.88 275.06 361.88 275.06 363.75 287.17 363.75 287.17 361.88 293.26 361.88 293.26 352.43 298.93 352.43 298.93 345.45 304.16 345.45 304.16 338.48 315.05 338.48 315.05 318.88 304.16 318.88" fill="#683c11" stroke="#1d1d1b" stroke-miterlimit="10" stroke-width="6"/>
  <path d="M407.09,283.44h-8.34v-19.68h-9.67v-8.67h-9.67v-7.67h-8.67v-12.09h-8.01v-10.59h-29.69v1.67h-9.01v1.67h-8.97v9.67h-6.38v8.17h-6.67v7.51h-6.01v6.67h-9.34v29.36h9.34v8.01h6.01v10.68h6.67v6.67h8.06v12.68h16.96v11.34h45.71v-11.84h7.84v-9.51h11.51v-5.34h8.34v-28.69ZM345.37,310.13v-9.55h-11.68v-11.13h-9.67v-6.01h-7.29v-19.68h7.29v-8.67h9.67v-9.17h18.02v7.51h9.01v3.67h2v8.67h8.01v7.01h8.67v-7.01h.42v17.68h7.42v19.68h-7.84v9.01h-7.01v5.34h-20.68v-7.34h-6.34Z" fill="#951b81" stroke="#1d1d1b" stroke-miterlimit="10" stroke-width="6"/>
  <path d="M184.82,437.25v-9.15h-10.98v-4.94h9.91v-11.62h-9.91v-9.15h9.91v-13.1h-12.59v-3.71h12.59v-11.87h-9.91v-14.59h9.91v-16.07h7.77v-13.35h-10.18v9.89h-10.18v8.65h-9.11v18.05h-9.91v27.2h-8.84v7.17h8.84v10.88h-8.84v9.15h8.84v16.57h-8.84v8.41h8.84v17.31h9.91v-6.43h7.77v10.38h13.93v-10.38h-11.25v-10.88h7.5v8.41h12.86v-8.41h8.84v-8.41h-16.88ZM162.05,420.68v-7.42h9.11v7.42h-9.11ZM171.16,399.91h-9.11v-8.16h9.11v8.16ZM167.95,377.41v4.7h-5.89v-4.7h5.89ZM162.05,430.57h9.11v6.68h-9.11v-6.68Z" fill="#dadada"/>
</svg>